<?xml version="1.0" encoding="UTF-8" standalone="no"?>
<svg width="25px" height="26px" viewBox="0 0 25 26" version="1.1" xmlns="http://www.w3.org/2000/svg" xmlns:xlink="http://www.w3.org/1999/xlink" xmlns:sketch="http://www.bohemiancoding.com/sketch/ns">
    <!-- Generator: Sketch 3.3.2 (12043) - http://www.bohemiancoding.com/sketch -->
    <title>Shape Copy 4</title>
    <desc>Created with Sketch.</desc>
    <defs></defs>
    <g id="Page-1" stroke="none" stroke-width="1" fill="none" fill-rule="evenodd" sketch:type="MSPage">
        <g id="Blog---Design" sketch:type="MSArtboardGroup" transform="translate(-421.000000, -282.000000)" fill="#FFFFFF" opacity="0.6">
            <path d="M433.5,282.071577 C426.596541,282.071577 421,287.667804 421,294.571577 C421,301.475351 426.596541,307.071577 433.5,307.071577 C440.403459,307.071577 446,301.475351 446,294.571577 C446,287.667804 440.403459,282.071577 433.5,282.071577 L433.5,282.071577 Z M440.518868,294.376923 L434.009748,301.539502 L432.690881,300.341074 L437.258491,295.314973 L433.802201,295.313087 L432.02044,295.311829 L426.429874,295.308684 L426.430818,293.526923 L432.021069,293.530068 L433.803145,293.531011 L436.965409,293.532898 L431.634591,288.932269 L432.822642,287.603653 L439.233962,293.141389 L439.240252,293.134785 L440.091195,293.908684 L440.570126,294.336986 L440.518868,294.376923 L440.518868,294.376923 Z" id="Shape-Copy-4" sketch:type="MSShapeGroup" transform="translate(433.500000, 294.571577) scale(-1, 1) translate(-433.500000, -294.571577) "></path>
        </g>
    </g>
</svg>